<svg width="0" height="0" class="hidden">
  <symbol xmlns="http://www.w3.org/2000/svg" viewBox="0 0 50 50" id="t1">
    <path d="M15.2 1C23 1 29.4 7.4 29.4 15.2S23 29.4 15.2 29.4 1 23 1 15.2 7.4 1 15.2 1m0-1C6.8 0 0 6.8 0 15.2c0 8.4 6.8 15.2 15.2 15.2 8.4 0 15.2-6.8 15.2-15.2C30.4 6.8 23.6 0 15.2 0z"></path>
    <path d="M34.8 20.6C42.6 20.6 49 27 49 34.8S42.6 49 34.8 49s-14.2-6.4-14.2-14.2S27 20.6 34.8 20.6m0-1c-8.4 0-15.2 6.8-15.2 15.2 0 8.4 6.8 15.2 15.2 15.2C43.2 50 50 43.2 50 34.8c0-8.4-6.8-15.2-15.2-15.2z"></path>
    <path d="M15.2 20.6c7.8 0 14.2 6.4 14.2 14.2S23 49 15.2 49 1 42.6 1 34.8s6.4-14.2 14.2-14.2m0-1C6.8 19.6 0 26.4 0 34.8 0 43.2 6.8 50 15.2 50s15.2-6.8 15.2-15.2c0-8.4-6.8-15.2-15.2-15.2z"></path>
    <path d="M34.8 1C42.6 1 49 7.4 49 15.2s-6.4 14.2-14.2 14.2S20.6 23 20.6 15.2 27 1 34.8 1m0-1c-8.4 0-15.2 6.8-15.2 15.2s6.8 15.2 15.2 15.2c8.4 0 15.2-6.8 15.2-15.2S43.2 0 34.8 0z"></path>
  </symbol>
  <symbol xmlns="http://www.w3.org/2000/svg" viewBox="0 0 51 52.5" id="t2">
    <path d="M.5 33.3L19 21l5.2 4.4 8.1-7.5 2 1.5 2.3-3.7 13.9 17.6V52H.5z"></path>
    <circle cx="12.1" cy="11.4" r="4.9"></circle>
    <path d="M19.4 11.4h3.5m-18.2 0H1.2m10.9 7.3v3.5m0-18.2V.5m5.1 16l2.5 2.5M6.9 6.2L4.4 3.7m2.5 12.8L4.4 19M17.2 6.2l2.5-2.5"></path>
  </symbol>
  <symbol xmlns="http://www.w3.org/2000/svg" viewBox="0 0 23.1 42.8" id="t3">
    <circle cx="11.5" cy="19.7" r="6.7"></circle>
    <path d="M19.4 22.9c-1.2 3.1-4.3 5.3-7.9 5.3S4.9 26 3.7 22.9C1.4 25 0 27.9 0 31.3c0 6.4 5.2 11.5 11.5 11.5S23 37.6 23 31.3c.1-3.4-1.4-6.3-3.6-8.4zM5.7 14.6c1.3-1.8 3.4-3 5.9-3s4.6 1.2 5.9 3C19 13 20 10.9 20 8.5 20 3.8 16.2 0 11.5 0S3.1 3.8 3.1 8.5c0 2.4 1 4.5 2.6 6.1z"></path>
  </symbol>
</svg>