<svg version="1.1" xmlns="http://www.w3.org/2000/svg" xmlns:xlink="http://www.w3.org/1999/xlink" x="0px" y="0px" width="50px"
	 height="50px" viewBox="0 0 50 50" style="enable-background:new 0 0 50 50;" xml:space="preserve">

	<path d="M15.2,1C23,1,29.4,7.4,29.4,15.2S23,29.4,15.2,29.4S1,23,1,15.2S7.4,1,15.2,1 M15.2,0C6.8,0,0,6.8,0,15.2
		c0,8.4,6.8,15.2,15.2,15.2c8.4,0,15.2-6.8,15.2-15.2C30.4,6.8,23.6,0,15.2,0L15.2,0z"/>

	<path d="M34.8,20.6C42.6,20.6,49,27,49,34.8S42.6,49,34.8,49s-14.2-6.4-14.2-14.2S27,20.6,34.8,20.6 M34.8,19.6
		c-8.4,0-15.2,6.8-15.2,15.2c0,8.4,6.8,15.2,15.2,15.2C43.2,50,50,43.2,50,34.8C50,26.4,43.2,19.6,34.8,19.6L34.8,19.6z"/>

	<path d="M15.2,20.6c7.8,0,14.2,6.4,14.2,14.2S23,49,15.2,49S1,42.6,1,34.8S7.4,20.6,15.2,20.6 M15.2,19.6C6.8,19.6,0,26.4,0,34.8
		C0,43.2,6.8,50,15.2,50s15.2-6.8,15.2-15.2C30.4,26.4,23.6,19.6,15.2,19.6L15.2,19.6z"/>

	<path d="M34.8,1C42.6,1,49,7.4,49,15.2s-6.4,14.2-14.2,14.2S20.6,23,20.6,15.2S27,1,34.8,1 M34.8,0c-8.4,0-15.2,6.8-15.2,15.2
		s6.8,15.2,15.2,15.2c8.4,0,15.2-6.8,15.2-15.2S43.2,0,34.8,0L34.8,0z"/>
</svg>