<svg version="1.1" xmlns="http://www.w3.org/2000/svg" xmlns:xlink="http://www.w3.org/1999/xlink" x="0px" y="0px" width="23.1px"
	 height="42.8px" viewBox="0 0 23.1 42.8" style="enable-background:new 0 0 23.1 42.8;" xml:space="preserve">
<circle cx="11.5" cy="19.7" r="6.7"/>
<path d="M19.4,22.9c-1.2,3.1-4.3,5.3-7.9,5.3S4.9,26,3.7,22.9C1.4,25,0,27.9,0,31.3c0,6.4,5.2,11.5,11.5,11.5s11.5-5.2,11.5-11.5
	C23.1,27.9,21.6,25,19.4,22.9z"/>
<path d="M5.7,14.6c1.3-1.8,3.4-3,5.9-3s4.6,1.2,5.9,3C19,13,20,10.9,20,8.5C20,3.8,16.2,0,11.5,0S3.1,3.8,3.1,8.5
	C3.1,10.9,4.1,13,5.7,14.6z"/>
</svg>
